<svg
        width="100"
        height="100"
        viewBox="0 0 100 100"
        fill="none"
        xmlns="http://www.w3.org/2000/svg"
      >
        <g id="loading">
          <rect width="100" height="100" fill="white" />
          <g id="Squares">
            <path
              id="square4"
              d="M50 24.75H49.75V25V50V50.25H50H75H75.25V50V35C75.25 29.3391 70.6609 24.75 65 24.75H50Z"
              stroke-width="0.5"
            />
            <path
              id="square3"
              d="M50 49.75H49.75V50V75V75.25H50H65C70.6609 75.25 75.25 70.6609 75.25 65V50V49.75H75H50Z"
              stroke-width="0.5"
            />
            <path
              id="square2"
              d="M25 49.75H24.75V50V65C24.75 70.6609 29.3391 75.25 35 75.25H50H50.25V75V50V49.75H50H25Z"
              stroke-width="0.5"
            />
            <path
              id="square1"
              d="M50.25 25V24.75H50H35C29.3391 24.75 24.75 29.3391 24.75 35V50V50.25H25H50H50.25V50V25Z"
              stroke-width="0.5"
            />
          </g>
          <path
            id="Snap"
            d="M50.456 67.336C46.52 67.336 43.288 66.408 40.76 64.552C38.232 62.664 36.872 59.976 36.68 56.488H46.712C46.808 57.672 47.16 58.536 47.768 59.08C48.376 59.624 49.16 59.896 50.12 59.896C50.984 59.896 51.688 59.688 52.232 59.272C52.808 58.824 53.096 58.216 53.096 57.448C53.096 56.456 52.632 55.688 51.704 55.144C50.776 54.6 49.272 53.992 47.192 53.32C44.984 52.584 43.192 51.88 41.816 51.208C40.472 50.504 39.288 49.496 38.264 48.184C37.272 46.84 36.776 45.096 36.776 42.952C36.776 40.776 37.32 38.92 38.408 37.384C39.496 35.816 41 34.632 42.92 33.832C44.84 33.032 47.016 32.632 49.448 32.632C53.384 32.632 56.52 33.56 58.856 35.416C61.224 37.24 62.488 39.816 62.648 43.144H52.424C52.392 42.12 52.072 41.352 51.464 40.84C50.888 40.328 50.136 40.072 49.208 40.072C48.504 40.072 47.928 40.28 47.48 40.696C47.032 41.112 46.808 41.704 46.808 42.472C46.808 43.112 47.048 43.672 47.528 44.152C48.04 44.6 48.664 45 49.4 45.352C50.136 45.672 51.224 46.088 52.664 46.6C54.808 47.336 56.568 48.072 57.944 48.808C59.352 49.512 60.552 50.52 61.544 51.832C62.568 53.112 63.08 54.744 63.08 56.728C63.08 58.744 62.568 60.552 61.544 62.152C60.552 63.752 59.096 65.016 57.176 65.944C55.288 66.872 53.048 67.336 50.456 67.336Z"
            fill="white"
          />
        </g>
      </svg>